<svg width="64" height="64" xmlns="http://www.w3.org/2000/svg">

 <g>
  <title>background</title>
  <rect fill="none" id="canvas_background" height="402" width="582" y="-1" x="-1"/>
 </g>
 <g>
  <title>Layer 1</title>
  <path id="svg_1" fill="#00bf00" d="m62.848,16.853001l-0.056999,0c-1.094002,0.007 -1.263,-0.946001 -1.282001,-1.386001l0,-6.909c0,-0.736 -0.598999,-1.334 -1.334,-1.334l-19.751999,0c-4.957001,0 -6.805,1.836 -7.264,2.414l-0.125999,0.174001l-0.000999,0.002l-0.391003,0.536c-0.000999,0 -0.000999,0 -0.000999,0c-0.523998,0.721 -0.980999,0.412999 -1.201,0.177999l-0.747999,-0.933l-0.368999,-0.445001c-0.622,-0.653 -2.242001,-1.927 -5.452,-1.927l-21.043001,0c-0.737,0 -1.335,0.598 -1.335,1.334l0,6.822c0,1.193001 -0.648,1.434 -1.046,1.473l-0.297,0c-0.324,0.019001 -1.077,0.208 -1.077,1.595001l0,32.504999c0,0.798 0.647,1.444 1.444,1.444l19.205001,0c6.126999,0 8.796999,2.312 9.598,3.196999l0.456999,0.566002l0.001001,0c0,0 1.224998,1.384998 2.515999,0l0,0l0.269001,-0.314999l0,0.002998l0.002998,-0.002998l0.341,-0.400002c0.010002,-0.012001 0.093002,-0.104 0.211002,-0.226002c1.023998,-0.994999 3.578999,-2.821999 8.575001,-2.821999l19.792,0c0.798,0 1.442997,-0.646 1.442997,-1.444l0,-32.82c0.001003,-1.174 -0.851997,-1.273001 -1.078999,-1.278999zm-4.314999,29c0,0.639999 -0.535,1.159 -1.201,1.159l-16.283001,0c-5.794998,0 -7.898998,2.615997 -7.898998,2.615997l-0.267002,0.358002l-0.125,0.174999c-0.000999,0 -0.000999,0 -0.000999,0c-0.553001,0.75 -1.365,0.006001 -1.368999,0l-0.375,-0.467999c-0.278,-0.333 -2.407,-2.681999 -7.558001,-2.681999l-16.79,0c-0.663,0 -1.198,-0.52 -1.198,-1.159l0,-34.640001c0,-0.64 0.536,-1.157 1.198,-1.157l13.033999,0c9.696001,0 10.614,5.507 10.677,7.105999l0,24.091999c0,1.751003 0.834,2.078003 1.305,2.126003l0.701,0c0.479,-0.048 1.242001,-0.333 1.242001,-1.697002l0,-24.83l-0.008999,0c0.073997,-2.002999 0.854,-6.796999 6.685997,-6.796999l17.031002,0c0.666,0 1.201,0.516999 1.201,1.157l0,34.641001z"/>
 </g>
</svg>