<svg width="347" height="475" xmlns="http://www.w3.org/2000/svg">

 <g>
  <title>background</title>
  <rect fill="none" id="canvas_background" height="477" width="349" y="-1" x="-1"/>
 </g>
 <g>
  <title>Layer 1</title>
  <path fill="#bf0000" id="svg_1" d="m261.11322,65.167702l0,-29c0,-19.099998 -14.499985,-34.999996 -34.499985,-34.999996l-101.100021,0c-19.899994,0 -34.399994,15.899998 -34.399994,34.999996l0,29l-90.999998,0l0,32l9.199997,0c0,0 5.400002,0.600006 8.200005,3.399994c2.799995,2.800003 3.900002,9 3.900002,9l18.999998,241.700035c1.5,29.399994 1.5,33.899994 36,33.899994l199.399979,0c34.5,0 34.5,-4.399994 36,-33.799988l19,-241.600044c0,0 1.100006,-6.300003 3.899994,-9.100006c2.800018,-2.799988 8.200012,-3.399994 8.200012,-3.399994l9.200012,0l0,-32l-91,0l0,-0.099991zm-149,-29c0,-9.599998 7.800003,-15 17.699997,-15l91.700012,0c9.899994,0 18.600006,5.5 18.600006,15l0,29l-128.000015,0l0,-29zm-8.5,285.000023l-10.300003,-192.000031l20.300003,0l10.5,192.000031l-20.5,0zm83.600021,0l-22,0l0,-192.000031l22,0l0,192.000031zm61.600006,0l-20.399994,0l10.5,-192.000031l20.299973,0l-10.399979,192.000031z"/>
  <text font-weight="bold" transform="matrix(1.80391, 0, 0, 2.33988, -6.64117, -543.146)" xml:space="preserve" text-anchor="start" font-family="Helvetica, Arial, sans-serif" font-size="24" id="svg_2" y="425.425236" x="4.528541" stroke-opacity="null" stroke-width="0" stroke="null" fill="#bf0000">Delete All Books</text>
 </g>
</svg>