<svg width="353" height="384" xmlns="http://www.w3.org/2000/svg">

 <g>
  <title>background</title>
  <rect fill="none" id="canvas_background" height="386" width="355" y="-1" x="-1"/>
 </g>
 <g>
  <title>Layer 1</title>
  <path fill="#bf0000" id="svg_1" d="m262.907959,65.167313l0,-29c0,-19.099998 -14.500015,-35 -34.500015,-35l-101.100006,0c-19.899994,0 -34.399994,15.900002 -34.399994,35l0,29l-91,0l0,32l9.199997,0c0,0 5.400002,0.600006 8.200005,3.399994c2.799995,2.800003 3.900002,9 3.900002,9l19,241.700027c1.5,29.399963 1.5,33.899963 36,33.899963l199.399963,0c34.5,0 34.5,-4.399963 36,-33.799988l19,-241.600006c0,0 1.100037,-6.300003 3.900024,-9.100006c2.799988,-2.799988 8.200012,-3.399994 8.200012,-3.399994l9.200012,0l0,-32l-91,0l0,-0.099991zm-149.000015,-29c0,-9.599998 7.800003,-15 17.699997,-15l91.699997,0c9.899994,0 18.600006,5.5 18.600006,15l0,29l-128,0l0,-29zm-8.5,284.999985l-10.300003,-191.999985l20.300003,0l10.5,191.999985l-20.5,0zm83.600006,0l-22,0l0,-191.999985l22,0l0,191.999985zm61.600006,0l-20.399994,0l10.5,-191.999985l20.299973,0l-10.399979,191.999985z"/>
 </g>
</svg>