<svg width="492.99999999999994" height="158" xmlns="http://www.w3.org/2000/svg">

 <g>
  <title>background</title>
  <rect fill="none" id="canvas_background" height="160" width="495" y="-1" x="-1"/>
 </g>
 <g>
  <title>Layer 1</title>
  <path id="svg_1" d="m341,128l0,-29c0,-19.100006 -14.5,-35 -34.5,-35l-101.100006,0c-19.899994,0 -34.399994,15.899994 -34.399994,35l0,29l-91,0l0,32l9.199997,0c0,0 5.400002,0.600006 8.200005,3.399994c2.799995,2.800018 3.900002,9 3.900002,9l19,241.700012c1.5,29.399994 1.5,33.899994 36,33.899994l199.399979,0c34.5,0 34.5,-4.399994 36,-33.799988l19,-241.600006c0,0 1.100006,-6.300018 3.899994,-9.100006c2.800018,-2.799988 8.200012,-3.399994 8.200012,-3.399994l9.200012,0l0,-32.000015l-91,0l0,-0.099991zm-149,-29c0,-9.600006 7.800003,-15 17.699997,-15l91.699997,0c9.899994,0 18.600006,5.5 18.600006,15l0,29l-128,0l0,-29zm-8.5,285l-10.300003,-192l20.300003,0l10.5,192l-20.5,0zm83.600006,0l-22,0l0,-192l22,0l0,192zm61.600006,0l-20.399994,0l10.5,-192l20.299988,0l-10.399994,192z"/>
  <path id="svg_3" d="m58.252216,120.864868" opacity="0.5" fill-opacity="null" stroke-opacity="null" stroke-width="null" stroke="null" fill="null"/>
 </g>
</svg>