<svg width="64" height="64" xmlns="http://www.w3.org/2000/svg">

 <g>
  <title>background</title>
  <rect fill="none" id="canvas_background" height="402" width="582" y="-1" x="-1"/>
 </g>
 <g>
  <title>Layer 1</title>
  <path fill="#d2f0ea" id="svg_2" d="m38.5,8.08c-4.790001,0 -8.68,3.89 -8.68,8.68l0,1.209999l2,0l0,-1.209999c0,-3.68 3,-6.68 6.68,-6.68s6.68,3 6.68,6.68l2,0c0,-4.79 -3.900002,-8.68 -8.68,-8.68z" class="st2"/>
  <ellipse fill="#b4e6dd" id="svg_3" ry="0.44" rx="1" cy="16.77" cx="46.18" class="st0"/>
  <path fill="#ff5656" id="svg_4" d="m34.939999,19.690001l0,-3.950001l-8.239998,0l0,3.950001c-8.150002,1.869999 -14.240001,9.16 -14.240001,17.879999c0,10.139999 8.22,18.360001 18.36,18.360001s18.360001,-8.220001 18.360001,-18.360001c0,-8.719999 -6.09,-16.01 -14.240002,-17.879999z" class="st6"/>
  <rect fill="#fbd872" id="svg_8" y="16.27" x="48.05" width="3.49" height="0.81" class="st4"/>
  <rect fill="#fbd872" id="svg_10" y="16.27" x="40.82" width="3.49" height="0.81" class="st4"/>
  <rect fill="#fbd872" id="svg_13" y="17.48" x="48.33" width="0.81" transform="matrix(0.7071 -0.7071 0.7071 0.7071 0.6773 40.0916)" height="3.49" class="st4"/>
  <rect fill="#fbd872" id="svg_16" y="18.54" x="45.77" width="0.81" height="3.49" class="st4"/>
  <rect fill="#fbd872" id="svg_19" y="18.82" x="41.88" width="3.49" transform="matrix(0.7071 -0.7071 0.7071 0.7071 -0.82 36.4769)" height="0.81" class="st4"/>
 </g>
</svg>